{"title":"Grave of the Fireflies 1988 1080p BluRay DTS x264 - alrmothe","uid":8055034,"size":5868903020,"categoryP":"video","categoryS":"hd___movies","magnet":"?xt=urn:btih:dc5c762c532b77916ed860c7d7262e2c4f75e400&amp;dn=Grave+of+the+Fireflies+1988+1080p+BluRay+DTS+x264+-+alrmothe&amp;tr=udp%3A%2F%2Ftracker.openbittorrent.com%3A80&amp;tr=udp%3A%2F%2Fopen.demonii.com%3A1337&amp;tr=udp%3A%2F%2Ftracker.coppersurfer.tk%3A6969&amp;tr=udp%3A%2F%2Fexodus.desync.com%3A6969","seeders":0,"leechers":1,"uploader":".alrmothe","files":32,"time":1358900925,"description":"Movies : Animation : BluRay : Japanese\n\n\nGrave of the Fireflies 1988 1080p BluRay DTS x264 - alrmothe\n\n &lt;a href=&quot;\nhttp://img849.imageshack.us/img849/5659/coversxi.jpg&quot; rel=&quot;nofollow&quot; target=&quot;_NEW&quot;&gt;\nhttp://img849.imageshack.us/img849/5659/coversxi.jpg&lt;/a&gt;\n\n\n\n\n\n\n\nIMDB: &lt;a href=&quot;\nhttp://www.imdb.com/title/tt0095327&quot; rel=&quot;nofollow&quot; target=&quot;_NEW&quot;&gt;\nhttp://www.imdb.com/title/tt0095327&lt;/a&gt;\nGenre:Animation | Drama | War\nSource:Blu-ray Disc\nLanguage:Japanese\nFile size:5.46 GiB\nOverall bit rate:8828 Kbps\nDuration:1h 28mn \nEncoded / Released By:alrmothe\n\n\nStorylineSetsuko and Seita are brother and sister living in wartime Japan. After their mother is killed in an air raid they find a temporary home with relatives. Having quarreled with their aunt they leave the city and make their home in an abandoned shelter. While their soldier father's destiny is unknown, the two must depend on each other to somehow keep a roof over their heads and food in their stomachs. When everything is in short supply, they gradually succumb to hunger and their only entertainment is the light of the fireflies.\n\n\n\ncast\nTsutomu Tatsumi\t.. Seita (voice)\nAyano Shiraishi .. Setsuko (voice)\nYoshiko Shinohara .. Mother (voice)\nAkemi Yamaguchi\t .. Aunt (voice)\n\n\n\nVideo Information\nFormat: Matroska\nFormat: AVC\nFormat/Info : Advanced Video Codec\nFormat profile: &lt;a class=&quot;__cf_email__&quot; href=&quot;/cdn-cgi/l/email-protection&quot; data-cfemail=&quot;d29abbb5ba929ee6fce3&quot;&gt;[email&amp;#160;protected]&lt;/a&gt;&lt;script cf-hash='f9e31' type=&quot;text/javascript&quot;&gt;\n/* &lt;![CDATA[ */!function(){try{var t=&quot;currentScript&quot;in document?document.currentScript:function(){for(var t=document.getElementsByTagName(&quot;script&quot;),e=t.length;e--;)if(t[e].getAttribute(&quot;cf-hash&quot;))return t[e]}();if(t&amp;&amp;t.previousSibling){var e,r,n,i,c=t.previousSibling,a=c.getAttribute(&quot;data-cfemail&quot;);if(a){for(e=&quot;&quot;,r=parseInt(a.substr(0,2),16),n=2;a.length-n;n+=2)i=parseInt(a.substr(n,2),16)^r,e+=String.fromCharCode(i);e=document.createTextNode(e),c.parentNode.replaceChild(e,c)}}}catch(u){}}();/* ]]&gt; */&lt;/script&gt;\nFormat settings, CABAC: Yes\nFormat settings, ReFrames: 4 frames\nMuxing mode: Header stripping\nCodec ID: V_MPEG4/ISO/AVC\nBit rate: 7324 Kbps\nDisplay aspect ratio: 1.85:1\nFrame rate mode: Constant\nFrame rate: 23.976 fps\nColor space: YUV\nChroma subsampling: 4:2:0\nBit depth: 8 bits\nScan type: Progressive\nBits/(Pixel*Frame): 0.153\nStream size: 4.42 GiB(81%)\nResolution:1920x1040\n\n\nAudio Information:\n\nFormat: DTS\nFormat/Info : Digital Theater Systems\nMode: 16\nFormat settings, Endianness: Big\nMuxing mode : Header stripping\nCodec ID: A_DTS\nBit rate mode: Constant\nBit rate : 1 509 Kbps\nChannel(s): 2 channels\nChannel positions: Front: L C R, Side: L R, LFE\nSampling rate : 48.0 KHz\nBit depth: 24 bits\nCompression mode: Lossy\nStream size: 956 GiB (17%)\nLanguage:Japanese\n\n\nSUB:English,Arabic,swedish \nindonesian,vietnamese\n\n\n\n\nScreenshots &lt;a href=&quot;\nhttp://img832.imageshack.us/img832/4245/31003929.jpg&quot; rel=&quot;nofollow&quot; target=&quot;_NEW&quot;&gt;\nhttp://img832.imageshack.us/img832/4245/31003929.jpg&lt;/a&gt; &lt;a href=&quot;\nhttp://img844.imageshack.us/img844/776/12060179.jpg&quot; rel=&quot;nofollow&quot; target=&quot;_NEW&quot;&gt;\nhttp://img844.imageshack.us/img844/776/12060179.jpg&lt;/a&gt; &lt;a href=&quot;\nhttp://img14.imageshack.us/img14/3195/31231379.jpg&quot; rel=&quot;nofollow&quot; target=&quot;_NEW&quot;&gt;\nhttp://img14.imageshack.us/img14/3195/31231379.jpg&lt;/a&gt; &lt;a href=&quot;\nhttp://img259.imageshack.us/img259/2038/74124660.jpg&quot; rel=&quot;nofollow&quot; target=&quot;_NEW&quot;&gt;\nhttp://img259.imageshack.us/img259/2038/74124660.jpg&lt;/a&gt; &lt;a href=&quot;\nhttp://img856.imageshack.us/img856/762/30831008.jpg&quot; rel=&quot;nofollow&quot; target=&quot;_NEW&quot;&gt;\nhttp://img856.imageshack.us/img856/762/30831008.jpg&lt;/a&gt; &lt;a href=&quot;\nhttp://img132.imageshack.us/img132/7306/58931006.jpg&quot; rel=&quot;nofollow&quot; target=&quot;_NEW&quot;&gt;\nhttp://img132.imageshack.us/img132/7306/58931006.jpg&lt;/a&gt; &lt;a href=&quot;\nhttp://img826.imageshack.us/img826/7677/graveofthefireflies1988.jpg&quot; rel=&quot;nofollow&quot; target=&quot;_NEW&quot;&gt;\nhttp://img826.imageshack.us/img826/7677/graveofthefireflies1988.jpg&lt;/a&gt;\n\n\n\nCode:\n\n &lt;a href=&quot;\nhttp://121.14.98.151:9090/announce&quot; rel=&quot;nofollow&quot; target=&quot;_NEW&quot;&gt;\nhttp://121.14.98.151:9090/announce&lt;/a&gt; &lt;a href=&quot;\nhttp://tracker.ex.ua/announce&quot; rel=&quot;nofollow&quot; target=&quot;_NEW&quot;&gt;\nhttp://tracker.ex.ua/announce&lt;/a&gt; &lt;a href=&quot;\nhttp://tracker.torrentbay.to:6969/announce&quot; rel=&quot;nofollow&quot; target=&quot;_NEW&quot;&gt;\nhttp://tracker.torrentbay.to:6969/announce&lt;/a&gt; &lt;a href=&quot;\nhttp://exodus.desync.com:6969/announce&quot; rel=&quot;nofollow&quot; target=&quot;_NEW&quot;&gt;\nhttp://exodus.desync.com:6969/announce&lt;/a&gt; &lt;a href=&quot;\nhttp://94.228.192.98/announce&quot; rel=&quot;nofollow&quot; target=&quot;_NEW&quot;&gt;\nhttp://94.228.192.98/announce&lt;/a&gt;\nudp://tracker.istole.it:80/announce\n\n\n &lt;a href=&quot;\nhttp://torrent-stats.info/60c7/c9b0fb2a.png&quot; rel=&quot;nofollow&quot; target=&quot;_NEW&quot;&gt;\nhttp://torrent-stats.info/60c7/c9b0fb2a.png&lt;/a&gt;\n\n\n\n\nTrailer\n","torrent":{"xt":"urn:btih:dc5c762c532b77916ed860c7d7262e2c4f75e400","amp;dn":"Grave+of+the+Fireflies+1988+1080p+BluRay+DTS+x264+-+alrmothe","amp;tr":["udp%3A%2F%2Ftracker.openbittorrent.com%3A80","udp%3A%2F%2Fopen.demonii.com%3A1337","udp%3A%2F%2Ftracker.coppersurfer.tk%3A6969","udp%3A%2F%2Fexodus.desync.com%3A6969"],"infoHash":"dc5c762c532b77916ed860c7d7262e2c4f75e400","infoHashBuffer":{"type":"Buffer","data":[220,92,118,44,83,43,119,145,110,216,96,199,215,38,46,44,79,117,228,0]},"announce":[],"urlList":[]}}